<svg id="Layer_1" data-name="Layer 1" xmlns="http://www.w3.org/2000/svg" xmlns:xlink="http://www.w3.org/1999/xlink" viewBox="0 0 141.731 70.7256"><defs><style>.cls-1{fill:none;}.cls-2{fill:#86a315;}.cls-3{fill:#fff;}.cls-4{clip-path:url(#clip-path);}.cls-5{fill:#c2ce8e;}</style><clipPath id="clip-path" transform="translate(-0.0005 -0.001)"><rect class="cls-1" width="141.7324" height="70.7266"/></clipPath></defs><polygon class="cls-2" points="124.1 0 0 0.014 0 53.214 141.731 70.726 124.1 0"/><path class="cls-3" d="M61.3306,23.1763H71.8369V20.1616H64.56V6.2549h-3.23Zm-13.57,0h11.08V20.1616H51.0161V16.0444h6.51V13.1265h-6.51V9.2217h7.8247V6.2549h-11.08Zm-13.5455,0H45.2959V20.1616H37.4712V16.0444H43.98V13.1265H37.4712V9.2217h7.8247V6.2549H34.2153ZM25.0264,9.2217h7.2275V6.2549H21.7705V23.1763h3.2559V16.0444h6.1494V13.1265H25.0264ZM6.2388,23.1763H13.708V20.83L11.6,20.5669V8.8418l2.1079-.24V6.2549H6.2388V8.602l2.1094.24V20.5669L6.2388,20.83Z" transform="translate(-0.0005 -0.001)"/><g class="cls-4"><path class="cls-5" d="M18.565,40.9687c0-6.9648-9.4292-3.3281-9.4292-8.04,0-2.1313,1.6259-2.6079,3.54-2.6079a5.7907,5.7907,0,0,1,4.21,2.1758l1.271-1.2207a7.3,7.3,0,0,0-5.4814-2.7031c-2.75,0-5.5269,1.0053-5.5269,4.187,0,7.1787,9.4058,3.0405,9.4058,8.2558,0,2.252-1.794,3.209-3.8291,3.209a6.832,6.832,0,0,1-4.6929-2.1055L6.7427,43.3379a7.8555,7.8555,0,0,0,5.9609,2.5351c3.0113,0,5.8614-1.5293,5.8614-4.9043" transform="translate(-0.0005 -0.001)"/><path class="cls-3" d="M65.1109,45.6113H76.1875V42.5977H68.3662V38.4785H74.875v-2.918H68.3662V31.66h7.8213V28.69H65.1109Zm-7.7056,0L63.7222,28.69H60.2046L55.8018,41.2793H55.751L51.3228,28.69H47.8071l6.3413,16.9209ZM44.0029,36.2061v.958c0,3.2783-.0488,5.7421-3.5669,5.7421-3.351,0-3.5649-2.4394-3.5649-5.5517V36.2061c0-2.6573.1909-4.8335,3.5649-4.8335,3.3272,0,3.5669,2.0815,3.5669,4.8335m3.3975.36c0-4.8589-1.5088-8.1152-6.9644-8.1152s-6.9614,3.2563-6.9614,8.1152c0,4.8814.978,9.2837,6.9614,9.2837S47.4,41.4473,47.4,36.5659M21.46,45.6113H31.9658V42.5977H24.69V28.69H21.46Z" transform="translate(-0.0005 -0.001)"/></g><path class="cls-5" d="M108.5225,30.3418l2.8711,8.57H105.627l2.8476-8.57ZM113.74,45.61h2.0577l-6.125-16.8461h-2.3467L101.2227,45.61h2.083l1.747-5.0478h6.917Zm-20.03,0h6.3183V44.3418l-2.2246-.2647V30.32l2.2246-.2881V28.7852H93.71v1.2465l2.2226.2881V44.0771l-2.2226.2647Zm-5.6006,0h2.8232V28.7642H89.1152V43.6h-.05l-7.25-14.8354H78.99V45.61h1.8457V30.77h.045Z" transform="translate(-0.0005 -0.001)"/></svg>